Patient4_TMGait_0pt7_01_right_28_EMG.mot
version=1
nRows=16
nColumns=33
inDegrees=no
endheader
time	1LAddLong	2LGlutMax	3LGlutMed	4LIliopsoas	5LSemiMemb	6LBicFemLong	7LRecFem	8LVastMed	9LVastLat	10LGasMed	11LTibAnt	12lTibPost	13LPeroneusLong	14LSol	15LExtDigLong	16LFlexDigLong	17RAddLong	18RGlutMax	19RGlutMed	20RIliopsoas	21RSemiMemb	22RBicFemLong	23RRecFem	24RVastMed	25RVastLat	26RGasMed	27RTibAnt	28RTibPost	29RPeroneusLong	30RSol	31RExtDigLong	32RFlexDigLong
31.7	0.025177	0.032043	-0.055389	0.019836	0.10208	0.046082	0.30838	0.034485	-0.064545	0.023041	0.013275	0.022278	0.049896	0.048523	0.015717	0.35904	0.014038	-0.052948	0.17853	0.0177	-0.005951	0.029144	0.035706	0.066071	0.004272	-0.000305	0.071716	-0.001068	-0.66162	-0.074463	-0.003052	-0.005798
31.701	0.019531	0.026855	-0.042725	0.007324	0.084991	0.061798	0.20783	0.019073	0.081329	0.062866	0.00412	0.031586	0.052643	0.13809	0.024261	-0.032654	0.018463	-0.12878	0.002441	-0.060425	-0.002441	0.026398	0.06424	0.003357	-0.015869	0.001984	0.052032	-0.002594	0.41489	-0.038147	-0.001068	-0.002594
31.702	0.024109	0.020142	-0.016785	-0.00061	0.057678	0.03418	0.15213	0.007324	0.19104	0.076904	0.007935	-0.016785	0.055847	0.29511	-0.014038	0.33127	0.013733	-0.080719	-0.032806	-0.0914	-0.002441	0.021362	0.023041	-0.055084	-0.028229	-0.015564	0.019073	-0.007477	0.59692	0.048676	-0.003967	-0.009918
31.703	0.010986	0.020294	-0.10757	0.007019	0.040741	0.045776	0.037231	0.027466	0.041504	0.055695	0.013733	-0.016632	0.07431	0.31311	-0.014191	-0.073395	0.018158	-0.053711	0.011597	-0.10132	-0.050354	0.046539	0.088196	-0.088501	-0.027466	-0.014648	0.030365	-0.008698	0.52994	0.1326	-0.002441	-0.025787
31.704	0.009766	-0.012054	-0.073853	0.020599	0.032654	0.086517	0.016174	0.015411	-0.044861	0.041962	-0.000763	0.009918	0.038147	0.082245	-0.027008	0.28549	0.080872	-0.09964	0.27771	-0.095367	-0.052948	0.035553	0.1088	-0.14023	-0.026093	-0.012207	0.065308	-0.00885	0.094299	0.07309	-0.002594	-0.0383
31.705	0.007782	-0.028839	0.019531	0.022278	0.028839	0.049438	0.01709	0.011597	-0.014343	0.023956	0.016327	0.016937	0.027771	-0.14252	-0.027008	-0.27679	0.20706	-0.10864	0.41763	-0.089874	-0.049133	0.003052	0.093079	-0.11597	-0.024719	-0.011139	0.049438	-0.003662	-0.12085	0.069275	-0.003662	-0.037537
31.706	0.007629	-0.04425	0.026855	0.010834	0.0354	-0.066681	0.052643	-0.010071	-0.011902	-0.027924	0.036469	0.009918	-0.003967	-0.27145	-0.016479	-0.024719	0.23789	-0.16556	0.35019	-0.053711	-0.055847	0.02243	0.034943	-0.11505	-0.003662	-0.002136	0.033875	-0.000458	-0.16434	0.031433	-0.003815	-0.045929
31.707	0.007477	-0.063629	-0.011139	0.005798	0.019836	-0.10452	0.058899	-0.026398	-0.010529	-0.037537	0.018921	0.004425	0.01709	-0.19821	-0.018768	0.19272	0.15915	-0.18677	0.14954	0.055237	-0.06485	0.070496	0.069122	-0.059967	0.000153	-0.007629	0.060272	-0.012054	-0.13153	-0.014648	-0.00351	-0.052185
31.708	-0.002289	-0.067291	0.011139	0.011749	-0.005493	-0.083313	0.14389	-0.019684	-0.02182	-0.025024	-0.000916	0.009918	0.010529	-0.020752	-0.010071	-0.031586	0.064697	-0.1355	-0.14877	0.093231	-0.067749	0.06073	0.033417	-0.09201	-0.002899	-0.005188	0.085602	-0.003052	-0.19547	-0.059662	-0.002594	-0.050201
31.709	-0.01297	-0.080261	-0.023651	0.020142	0.002441	-0.060577	0.31204	-0.016632	0.023041	-0.022125	0.017242	0.013428	0.007019	0.092773	0.002441	-0.13245	-0.030212	-0.10346	-0.14526	0.072937	-0.066681	0.036774	0.069885	-0.10269	-0.005341	-0.002594	0.052795	-0.003662	-0.47302	-0.071564	-0.001678	-0.03891
31.71	0.00885	-0.085754	-0.062256	0.0177	0.039063	0.004883	0.36438	0.00061	0.061493	-0.06546	0.009766	0.008698	0.037537	0.26459	0.000763	-0.13947	-0.063629	-0.093536	0.12909	0.038147	-0.059662	0.049286	0.03006	-0.14328	-0.019684	-0.001068	0.016937	-0.003204	-0.074615	-0.062408	-0.002136	-0.038757
31.711	-0.002441	-0.081635	-0.054016	0.002747	0.079498	0.012665	0.28153	0.013123	0.091095	-0.13443	-0.00061	0.012665	0.031891	0.31433	-0.020905	-0.064392	-0.099335	-0.056915	0.51651	-0.003967	-0.082245	0.020294	0.031128	-0.15381	-0.011292	-0.016174	0.050201	-0.003815	0.17059	-0.062561	-0.007324	-0.034943
31.712	0.007172	-0.080414	-0.008545	-0.00412	0.047913	0.025177	0.24902	0.013428	0.060272	-0.13001	0.015564	0.022888	-0.091858	0.28961	-0.05127	-0.25559	-0.075378	-0.061493	0.80627	-0.12009	-0.083313	0.025787	0.056305	-0.15839	-0.013428	-0.015869	0.097046	-0.003662	0.10849	-0.046692	-0.000458	-0.034027
31.713	0.000763	-0.081024	0.001526	0.000305	-0.019226	0.018463	0.26016	0.008698	0.023956	-0.057983	0.02121	-0.065155	-0.15305	0.19653	-0.025177	-0.054474	-0.098114	-0.069733	0.60043	-0.10254	-0.081329	0.035248	0.02243	-0.15274	-0.024261	-0.008392	0.084076	-0.004578	0.039368	-0.044556	-0.00351	-0.017242
31.714	-0.000458	-0.10284	-0.026703	0.005035	-0.050354	-0.008545	0.22186	0.007172	-0.11139	0.063477	0.027924	0.15213	-0.16632	0.14282	-0.008087	1.0895	-0.11734	-0.12924	0.45944	-0.081635	-0.079346	0.044556	0.017242	-0.10574	-0.046692	-0.010223	0.073395	-0.00473	0.014954	-0.03067	-0.001678	-0.018768
31.715	0.007172	-0.097046	-0.048676	0.002441	-0.016785	-0.040894	0.20218	-0.007935	-0.05188	0.10254	0.014954	-0.017548	-0.037079	0.27496	-0.01358	-0.10941	-0.11353	-0.16129	0.37735	0.005188	0.009155	0.04837	0.027924	-0.098877	-0.023956	-0.006256	0.071259	-0.002899	-0.015717	-0.076447	-0.006714	-0.017853
